<svg version="1" xmlns="http://www.w3.org/2000/svg" width="1574.667" height="1574.667" viewBox="0 0 1181.000000 1181.000000"><path d="M369 74.7c-.8.3-1.7.9-2 1.3-.3.4-3.6 2.6-7.5 4.9-3.8 2.3-7.9 4.8-8.9 5.4-1.1.7-3.8 2.4-5.9 3.9-2.2 1.6-4.4 2.8-4.9 2.8s-1.4.5-2.1 1c-1.6 1.4-5.9 4.1-21.7 13.9-7.4 4.6-16.5 10.4-20.2 12.8-3.7 2.3-7.2 4.3-7.7 4.3s-1.1.4-1.3.8c-.3.8-8.9 6.2-18.4 11.6-1.8 1-3.6 2.6-3.9 3.3-.3.8-1.6 8.5-3 17.1-3 18.4-8.4 51.6-9.1 55.2-.2 1.4-.7 4.3-.9 6.5-.3 2.2-1.2 7.6-2 12s-1.7 9.3-1.9 11c-1.8 12.2-2.8 18.6-3.6 22.5-.5 2.5-1.2 6.7-1.5 9.4-.3 2.7-.8 5.2-1 5.5-.2.3-.6 2.9-.9 5.6-.3 2.8-1 7.3-1.5 10-.6 2.8-1.3 6.8-1.5 9-.2 2.2-1.2 8.3-2.1 13.5-2.2 12.4-2.2 17.2 0 29 .8 4.6 1.8 10.7 2 13.4.2 1.7.9 6.2 1.5 10.1.6 3.8 1.3 8.2 1.5 9.6.3 2.2 1.8 13.3 3 20.9 1.5 10.5 2.8 16.5 4.9 22.8 1.4 3.9 2.3 7.2 2.1 7.2-.2 0 .3 1.6 1.1 3.5s1.4 3.7 1.4 4c-.1.3 1.1 4.4 2.5 9 1.5 4.7 2.8 9.1 2.9 9.7.2.7.6 2 .9 2.8 2 5.3 3.4 10.9 3 11.4-.3.3-.1 1.1.4 1.8.6.7 2.2 5.1 3.6 9.8 1.4 4.7 5.3 17.7 8.7 29 3.4 11.3 7 23 8 26s2.8 9.1 4 13.5c1.2 4.4 4.1 13.4 6.4 20l4.1 12 .2 101.5c.3 110.9.3 113.1 1.4 117.5.4 1.6 1 5.2 1.4 8 .3 2.7 1 7.2 1.5 10 .5 2.7 1.2 6.8 1.5 9 .4 2.2 1 6.5 1.5 9.5s1.4 8.6 2 12.5c1.1 7.4 1.7 11.1 2.5 16 .3 1.6.7 4.3 1 6 .3 1.6.7 3.9.9 5 .2 1.1.7 4.2 1 7 .4 2.7.9 5.7 1.1 6.5.2.8.6 3.3 1 5.5.3 2.2 1 6.5 1.5 9.5 1.1 6.6 2.8 17.2 3.5 22 .3 1.9.8 4.6 1 6 .3 1.4.9 5.6 1.5 9.5.5 3.8 1.1 8.1 1.4 9.5.3 1.4.7 4.3 1.1 6.4.3 2.2.9 4.4 1.4 5 .4.6 2.7 5.6 5.1 11.1 2.3 5.5 5.5 12.8 7.1 16.3 1.6 3.5 2.9 6.5 2.9 6.7 0 .3 1.1 2.8 2.4 5.7 1.4 2.9 4.3 9.8 6.6 15.3s5.5 12.8 7.1 16.3c1.6 3.5 2.9 6.5 2.9 6.7 0 .3 1.6 3.8 3.5 7.9 1.9 4.1 3.5 8.1 3.5 8.9 0 .7.4 1.7.8 2.3.8.9 8.5 18.4 9.6 21.7.4 1.1 11 6.9 29.3 15.8 15.9 7.7 30.8 15.1 33.3 16.4 2.5 1.2 5.6 2.6 7 3 1.4.4 7.2 3 12.8 5.8 8.6 4.3 10.5 4.9 11.2 3.7 1.8-3.2 26-36.6 41.8-57.7l10.3-13.8-.6-5c-2.5-22.6-3.9-34.2-6.4-55-3.4-27.2-3.7-31.6-5.2-61.5-.5-11.8-1.2-22.9-1.4-24.5-.2-1.7-.7-11.1-1-21-.6-17-.5-19.1 2.4-37 4.2-25.6 4.8-29.6 6.6-39.5.8-4.7 2.4-14.1 3.5-21s4.2-26.3 7-43.1c2.7-16.9 5-31.5 5-32.4 0-1.7 2.6-7.2 6.7-14.5 2.8-5 7.3-13.1 12.8-23.5 2.7-5 5.3-9.3 5.9-9.8.6-.4 5.4-.6 10.6-.5l9.5.3 10.6 21c8.5 17 11.2 23.6 14.3 34.5 2.1 7.4 5.6 19.6 7.7 27 5.7 19.9 6.7 23.6 16.9 68.5 2.3 9.9 5 21.6 6 26 1.8 7.4 2.4 13.9 5 55.5.5 8 1.4 21.9 2 31 1.7 26 1.6 29.7-1 48-.5 3.6-2.1 16.2-3.5 28-3.3 28.6-4.5 38.7-6 49.9l-1.2 9.3 7.5 8.2c4.2 4.4 8.5 9 9.6 10.1 1.2 1.2 5.4 5.7 9.5 10 4.1 4.4 11.4 12.2 16.3 17.3 4.8 5.1 8.8 9.9 8.8 10.8 0 .9-1.1 2.5-2.5 3.6s-2.5 2.3-2.5 2.7c0 1.4 6.2 7.3 7.9 7.6.9.1 2.4-.2 3.3-.6 1-.6 1.9-.5 2.3.1.4.6 1.1.8 1.6.4.5-.3 2.1-.7 3.4-1 2.4-.4 6.9-3.3 22.9-14.7 3.7-2.6 7.1-4.7 7.6-4.7.4 0 1-.3 1.2-.8.4-1 33.7-23.2 34.8-23.2.6 0 1-.4 1-.9s1.5-1.6 3.3-2.4c4.8-2.3 6.2-4.3 9.7-13.7 1.8-4.7 3.8-9.9 4.6-11.7.8-1.7 1.4-3.4 1.4-3.8 0-.4.6-2.1 1.4-3.8 2-4.5 6.5-16.4 8.3-21.7 1.5-4.5 3.8-10.2 5.3-13 .4-.9 1.1-3 1.4-4.8.4-1.7 1.2-3.4 1.7-3.7.5-.4.9-1.3.9-2.1s2.1-6.8 4.6-13.2c4.4-11.5 7-18.1 11.4-29.3 1.1-3.1 2.3-7.4 2.6-9.5.2-2.1.6-5 .9-6.4.3-1.4.7-4.1 1-6 .5-3.3 1.3-7.7 4.9-26.5.8-4.4 1.8-9.6 2.1-11.5 2.3-13.8 6.7-36.4 7.9-41 .7-3 1.7-7.5 2.1-10 .3-2.5 3.1-17.8 6-34 3-16.2 5.7-32 5.9-35 .3-3 .8-24 1.1-46.5 1-79.4 1.7-131.1 1.9-143.5l.3-12.5 8-22.5c4.5-12.4 8.6-24.3 9.3-26.5.6-2.2 1.5-4.9 2-6 .5-1.1 2.5-7 4.6-13 2-6.1 4.3-12.2 5.1-13.8.7-1.5 1.1-2.7.8-2.7-.3 0 .2-1.7 1.1-3.8.9-2 3.4-8.9 5.6-15.2 5.5-16.2 10.6-30.5 13.3-37.5 1.4-3.7 2.5-9.5 2.9-15 .4-5 .9-10.6 1.1-12.5.2-1.9.6-6.7 1-10.5.4-3.9.8-8.4 1-10 .1-1.7.6-7.1.9-12.1.4-5 .9-10.4 1.1-12 .7-6.5 1.5-14.3 2.1-21.9.3-4.4.9-10.5 1.3-13.6.6-4.9.1-10.5-2.3-22.9-.3-1.4-1.2-6.3-2-11-.9-4.7-1.8-9.6-2.1-11-.3-1.4-1.4-7.7-2.5-14-1.2-6.3-2.3-12.2-2.5-13-.2-.8-.6-3.1-.9-5-.3-1.9-.8-4.6-1.1-6-.4-2.2-1.5-7.9-2.9-16-.2-1.4-1.4-7.7-2.5-14-1.2-6.3-2.8-15.3-3.7-20-.8-4.7-1.9-10.5-2.4-13s-1.1-5.9-1.4-7.5c-.2-1.7-1.1-6.6-2-11-.9-4.4-1.8-9.8-2.1-12-1.3-8.6-2.2-9.7-31.3-38.7l-28.7-28.6-6-1.3c-3.3-.7-6.4-1.4-7-1.5-.5-.2-2.6-.6-4.5-.9-1.9-.4-6.2-1.3-9.5-2.2-3.3-.8-7.1-1.7-8.5-1.9-1.4-.3-7.7-1.6-14-3s-12.4-2.8-13.5-3c-1.1-.2-2.9-.6-4-.8-33.8-7.4-30.5-7-38.9-5.2-3.9.8-8.3 1.8-9.9 2-1.5.3-3.5.7-4.5 1-.9.3-3.3.7-5.2 1-1.9.3-6.4 1.2-10 2-3.6.8-8.1 1.8-10 2.1-1.9.3-5.1 1-7 1.5-1.9.5-5.3 1.1-7.5 1.5-2.2.3-4.7.7-5.5 1-.8.2-2.6.6-4 .9-1.4.2-17.1 3.4-35 7.1-52.9 10.7-47.8 10-59.5 8-4.8-.8-8.7-1.4-13-2-2.2-.3-9.4-1.5-16-2.5-6.6-1.1-13.8-2.2-16-2.5-2.2-.4-6.9-1.1-10.5-1.6-3.6-.5-7.8-1.2-9.5-1.4-4-.6-14.7-2.4-21.5-3.5-3-.5-7.5-1.2-10-1.5-2.5-.3-5.2-.8-6-1-.8-.2-3.5-.7-6-1-2.5-.3-9.9-1.4-16.5-2.5s-13.8-2.2-16-2.5c-2.2-.3-5.1-.8-6.5-1-1.4-.3-4.3-.7-6.5-1-2.2-.3-9.6-1.5-16.5-2.5-17.9-2.8-18.3-2.9-20-2.3z"/></svg>